HIERARCHY
ROOT Hips
{
 OFFSET 0.000000 0.000000 0.000000
 CHANNELS 6 Xposition Yposition Zposition Yrotation Xrotation Zrotation
 JOINT Chest
 {
  OFFSET 0.000000 9.585900 0.002600
  CHANNELS 3 Yrotation Xrotation Zrotation
  JOINT Chest2
  {
   OFFSET 0.000000 9.601200 -0.005300
   CHANNELS 3 Yrotation Xrotation Zrotation
   JOINT Chest3
   {
    OFFSET 0.000000 9.561800 0.000000
    CHANNELS 3 Yrotation Xrotation Zrotation
    JOINT Chest4
    {
     OFFSET 0.000000 9.552100 0.000000
     CHANNELS 3 Yrotation Xrotation Zrotation
     JOINT Neck
     {
      OFFSET 0.000000 14.453000 0.000000
      CHANNELS 3 Yrotation Xrotation Zrotation
      JOINT Head
      {
       OFFSET 0.000000 8.936500 -0.011300
       CHANNELS 3 Yrotation Xrotation Zrotation
       End Site
       {
        OFFSET 0.000000 17.073600 -0.006000
       }
      }
     }
     JOINT RightCollar
     {
      OFFSET -2.921100 9.558500 0.000000
      CHANNELS 3 Yrotation Xrotation Zrotation
      JOINT RightShoulder
      {
       OFFSET -13.519700 0.000000 0.000000
       CHANNELS 3 Yrotation Xrotation Zrotation
       JOINT RightElbow
       {
        OFFSET 0.000000 -29.696600 0.000000
        CHANNELS 3 Yrotation Xrotation Zrotation
        JOINT RightWrist
        {
         OFFSET 0.000000 -24.004700 0.000000
         CHANNELS 3 Yrotation Xrotation Zrotation
         End Site
         {
          OFFSET 0.000000 -17.728500 0.000000
         }
        }
       }
      }
     }
     JOINT LeftCollar
     {
      OFFSET 2.921100 9.558500 0.000000
      CHANNELS 3 Yrotation Xrotation Zrotation
      JOINT LeftShoulder
      {
       OFFSET 13.519700 0.000000 0.000000
       CHANNELS 3 Yrotation Xrotation Zrotation
       JOINT LeftElbow
       {
        OFFSET 0.000000 -29.696600 0.000000
        CHANNELS 3 Yrotation Xrotation Zrotation
        JOINT LeftWrist
        {
         OFFSET 0.000000 -24.004700 0.000000
         CHANNELS 3 Yrotation Xrotation Zrotation
         End Site
         {
          OFFSET 0.000000 -17.728500 0.000000
         }
        }
       }
      }
     }
    }
   }
  }
 }
 JOINT RightHip
 {
  OFFSET -7.771700 -0.012900 -0.001300
  CHANNELS 3 Yrotation Xrotation Zrotation
  JOINT RightKnee
  {
   OFFSET 0.000000 -40.869800 0.001200
   CHANNELS 3 Yrotation Xrotation Zrotation
   JOINT RightAnkle
   {
    OFFSET 0.000000 -39.717900 0.002100
    CHANNELS 3 Yrotation Xrotation Zrotation
    JOINT RightToe
    {
     OFFSET 0.000000 -4.965400 11.033500
     CHANNELS 3 Yrotation Xrotation Zrotation
     End Site
     {
      OFFSET 0.000000 -1.423100 5.872300
     }
    }
   }
  }
 }
 JOINT LeftHip
 {
  OFFSET 7.771700 -0.012900 -0.001300
  CHANNELS 3 Yrotation Xrotation Zrotation
  JOINT LeftKnee
  {
   OFFSET 0.000000 -40.869800 0.001200
   CHANNELS 3 Yrotation Xrotation Zrotation
   JOINT LeftAnkle
   {
    OFFSET 0.000000 -39.717900 0.002100
    CHANNELS 3 Yrotation Xrotation Zrotation
    JOINT LeftToe
    {
     OFFSET 0.000000 -4.965400 11.033500
     CHANNELS 3 Yrotation Xrotation Zrotation
     End Site
     {
      OFFSET 0.000000 -1.423100 5.872300
     }
    }
   }
  }
 }
}
MOTION
Frames: 14
Frame Time: 0.008333
0.000000 85.388000 0.000000 0.000000 -5.767877 0.000000 0.000000 11.653817 0.000000 0.000000 -5.885947 0.000000 0.000000 -0.000000 0.000000 0.000000 -0.000000 0.000000 0.000000 12.528835 0.000000 0.000000 0.711642 0.000000 0.000000 -0.000000 0.000000 0.000000 0.000000 -90.000000 0.000000 -2.309062 0.000000 0.000000 2.309062 0.000000 0.000000 -0.000000 0.000000 0.000000 -0.000000 90.000000 0.000000 -2.309062 0.000000 0.000000 2.309062 0.000000 0.000000 8.520406 0.000000 0.000000 1.905762 0.000000 -0.000000 -4.658285 0.000000 0.000000 -0.000000 0.000000 0.000000 8.520406 0.000000 0.000000 1.905762 0.000000 -0.000000 -4.658285 0.000000 0.000000 -0.000000 0.000000
-26.572632 61.113520 26.952376 161.351610 -15.679717 2.282016 2.324063 12.186502 0.188468 0.186028 0.893863 0.023963 0.307034 1.554697 0.045949 2.235982 11.117714 0.524825 3.315875 18.879112 0.149968 3.462366 -5.720975 -0.577883 3.572919 4.758357 -1.653928 -3.576385 -14.530654 -5.250714 -60.835250 -73.663813 73.614510 -1.850244 3.449023 -36.132744 -6.986697 1.187410 -5.892417 19.811890 -6.353164 1.270053 28.380186 -84.155261 -38.905928 -7.094552 6.509778 5.042721 -7.415417 -52.604432 2.744746 -14.877655 71.352561 -8.690284 1.229473 -5.799492 -6.202240 0.099620 -0.258851 0.034306 18.742738 -50.780959 -2.685183 31.516759 72.072034 28.686231 -18.338058 -15.441882 2.524005 0.165745 0.405748 0.065211
-26.569589 61.113282 26.953373 161.347185 -15.681737 2.268640 2.323911 12.204667 0.203459 0.187509 0.897728 0.024712 0.307574 1.559665 0.046563 2.231416 11.133728 0.528268 3.309253 18.850601 0.142988 3.450231 -5.751663 -0.581929 3.573266 4.736693 -1.655874 -3.566680 -14.524390 -5.257774 -60.840407 -73.669612 73.621443 -1.851004 3.441107 -36.138619 -6.992969 1.163190 -5.898522 19.793639 -6.325671 1.282129 28.574401 -84.175011 -39.074450 -7.097185 6.509426 5.048102 -7.437561 -52.599146 2.768535 -14.860661 71.353154 -8.667651 1.234998 -5.796938 -6.208924 0.094215 -0.261285 0.032600 18.735620 -50.784739 -2.658800 31.519089 72.072570 28.683494 -18.302482 -15.438764 2.520538 0.124824 0.411057 0.065690
-26.568197 61.113521 26.952309 161.325004 -15.691397 2.274330 2.338377 12.228587 0.203873 0.178116 0.924650 0.027354 0.316577 1.541984 0.045157 2.226299 11.155248 0.531731 3.285673 18.835032 0.141956 3.464504 -5.790887 -0.600618 3.581175 4.712859 -1.660802 -3.562956 -14.518808 -5.259890 -60.876886 -73.681018 73.657727 -1.850557 3.434554 -36.138601 -6.998059 1.136286 -5.903946 19.794174 -6.321387 1.284367 28.633169 -84.177981 -39.124877 -7.094262 6.521459 5.063652 -7.427818 -52.586986 2.768656 -14.836992 71.357018 -8.641534 1.252846 -5.824226 -6.210935 0.079667 -0.236821 0.026851 18.752134 -50.774359 -2.646417 31.529982 72.067912 28.695250 -18.326143 -15.388383 2.540541 0.163907 0.369964 0.050418
-26.565968 61.113519 26.952177 161.335868 -15.697115 2.265393 2.326570 12.238528 0.210041 0.172131 0.942807 0.028518 0.315287 1.546620 0.045989 2.223438 11.174695 0.534151 3.278927 18.805875 0.135423 3.474318 -5.811276 -0.610447 3.587117 4.705727 -1.655132 -3.555188 -14.539318 -5.272280 -60.899031 -73.687075 73.678120 -1.850853 3.444665 -36.141849 -7.002623 1.105146 -5.909810 19.803272 -6.328360 1.284477 28.637289 -84.174182 -39.127370 -7.092849 6.517742 5.072230 -7.450920 -52.577810 2.779839 -14.831763 71.355230 -8.630523 1.235510 -5.810469 -6.219727 0.093747 -0.254804 0.030920 18.731921 -50.770409 -2.640477 31.581695 72.061490 28.740395 -18.250050 -15.426215 2.524616 0.206586 0.405723 0.064722
-26.562059 61.113709 26.951648 161.326234 -15.705855 2.253969 2.331208 12.266639 0.224512 0.170349 0.946363 0.028332 0.307207 1.580770 0.048591 2.225219 11.164778 0.532203 3.282066 18.768355 0.126910 3.460875 -5.837535 -0.609289 3.598997 4.673768 -1.659585 -3.552816 -14.547279 -5.276809 -60.867373 -73.679393 73.642233 -1.872691 3.457680 -36.152207 -7.003888 1.072834 -5.915881 19.812820 -6.335919 1.285663 28.676140 -84.176018 -39.163242 -7.091698 6.520382 5.073525 -7.466639 -52.565055 2.804945 -14.823810 71.354962 -8.619999 1.238035 -5.807872 -6.223940 0.090773 -0.259620 0.030225 18.720197 -50.765641 -2.616719 31.618790 72.057067 28.776171 -18.202314 -15.425150 2.517330 0.200508 0.406934 0.066922
-26.561102 61.114185 26.949652 161.293297 -15.714742 2.269112 2.341788 12.316599 0.217086 0.179487 0.929249 0.027753 0.306574 1.585616 0.049167 2.217771 11.181458 0.535170 3.286761 18.735000 0.114436 3.447885 -5.860980 -0.609170 3.614715 4.635734 -1.671408 -3.562786 -14.524196 -5.268847 -60.888615 -73.681816 73.663742 -1.866816 3.447188 -36.145492 -7.001052 1.043854 -5.924036 19.818767 -6.329602 1.289887 28.820503 -84.188201 -39.301836 -7.089664 6.523366 5.075697 -7.430716 -52.557021 2.794690 -14.819016 71.358660 -8.615690 1.252105 -5.829258 -6.221852 0.073565 -0.240128 0.028235 18.756622 -50.751109 -2.615466 31.622439 72.051726 28.790852 -18.272833 -15.371447 2.537567 0.124710 0.369886 0.043459
-26.558807 61.114411 26.949001 161.287829 -15.717560 2.267511 2.342688 12.329147 0.220701 0.173062 0.941339 0.030431 0.305481 1.589886 0.050165 2.208082 11.196478 0.541233 3.266090 18.730442 0.110390 3.444222 -5.912398 -0.627982 3.628603 4.617820 -1.682055 -3.553761 -14.518167 -5.270495 -60.847218 -73.664206 73.600099 -1.848444 3.412597 -36.128909 -6.997010 1.016881 -5.936413 19.822199 -6.328152 1.294998 28.899363 -84.183659 -39.376155 -7.088996 6.512434 5.087867 -7.435193 -52.552997 2.803356 -14.818052 71.359613 -8.614579 1.252346 -5.828424 -6.221204 0.069260 -0.242919 0.027200 18.758162 -50.748830 -2.609184 31.649284 72.046116 28.822380 -18.285766 -15.361798 2.535283 0.124100 0.370845 0.043855
-26.555687 61.114650 26.948786 161.305102 -15.719016 2.255350 2.322772 12.339535 0.229630 0.163232 0.952808 0.032622 0.304144 1.594421 0.051362 2.211016 11.191012 0.541321 3.254439 18.730928 0.109683 3.446017 -5.934935 -0.641214 3.628550 4.621146 -1.682753 -3.545054 -14.491604 -5.261321 -60.919080 -73.687965 73.662879 -1.877264 3.419670 -36.157420 -7.003215 1.008830 -5.942912 19.827317 -6.313214 1.311679 29.191886 -84.193952 -39.664084 -7.087907 6.510987 5.098812 -7.476287 -52.546784 2.824252 -14.818730 71.357178 -8.612945 1.238973 -5.811669 -6.225688 0.083149 -0.263575 0.026829 18.734663 -50.749421 -2.602903 31.674839 72.040000 28.848170 -18.246621 -15.399239 2.514223 0.189532 0.413199 0.066887
-26.554305 61.115178 26.947617 161.305392 -15.721499 2.260877 2.307074 12.360445 0.224479 0.163861 0.950601 0.032120 0.303116 1.598154 0.052218 2.210373 11.192322 0.544011 3.243988 18.733988 0.107553 3.458012 -5.957831 -0.656642 3.633561 4.631076 -1.672343 -3.538709 -14.503904 -5.273022 -60.918612 -73.685741 73.650034 -1.870339 3.412078 -36.148071 -7.006837 0.998023 -5.950465 19.840793 -6.313583 1.315470 29.293287 -84.199029 -39.771400 -7.085950 6.511755 5.111612 -7.488359 -52.542812 2.823454 -14.820616 71.359488 -8.613704 1.246337 -5.817349 -6.235456 0.082765 -0.262989 0.029940 18.745474 -50.745551 -2.611179 31.665150 72.038973 28.847953 -18.282200 -15.382690 2.521652 0.167880 0.411295 0.061200
-26.550862 61.115737 26.947078 161.304352 -15.724169 2.255486 2.290624 12.381194 0.229644 0.177306 0.937772 0.029806 0.302784 1.599443 0.052473 2.183542 11.230771 0.554802 3.254052 18.709051 0.092051 3.464724 -5.975699 -0.666012 3.659607 4.597178 -1.684812 -3.535440 -14.507547 -5.278680 -60.902917 -73.676236 73.622579 -1.865530 3.409036 -36.142546 -6.993590 0.962354 -5.963234 19.856977 -6.321685 1.313588 29.311884 -84.200664 -39.795117 -7.083820 6.511529 5.119305 -7.522288 -52.531633 2.848988 -14.795088 71.355620 -8.595704 1.254582 -5.829284 -6.236945 0.078118 -0.253047 0.024550 18.739877 -50.745195 -2.604303 31.669080 72.036885 28.859131 -18.272566 -15.375366 2.519216 0.166783 0.412221 0.059549
-26.545156 61.116248 26.947384 161.304852 -15.726637 2.236753 2.272740 12.414835 0.246453 0.184338 0.927339 0.030153 0.301924 1.605126 0.053162 2.174595 11.249562 0.558529 3.266900 18.670876 0.077212 3.436367 -5.971973 -0.658842 3.675585 4.575463 -1.689165 -3.541816 -14.509473 -5.275238 -60.930219 -73.692328 73.658934 -1.883743 3.419439 -36.154315 -6.989379 0.928321 -5.970186 19.874674 -6.330543 1.318792 29.421059 -84.198871 -39.906248 -7.091425 6.515177 5.114561 -7.558012 -52.520914 2.881268 -14.794850 71.353528 -8.582129 1.254883 -5.832868 -6.247846 0.086935 -0.253902 0.020223 18.715541 -50.749340 -2.577574 31.676873 72.033235 28.873112 -18.232606 -15.375978 2.506260 0.187538 0.417297 0.064765
-26.542793 61.116927 26.946573 161.283321 -15.728903 2.246111 2.290090 12.422599 0.242413 0.166895 0.963690 0.031085 0.311590 1.591717 0.052907 2.156405 11.312452 0.564393 3.274896 18.609492 0.062206 3.442869 -5.995950 -0.667641 3.699477 4.509264 -1.695719 -3.565046 -14.487904 -5.252227 -60.970457 -73.717479 73.713383 -1.904625 3.430637 -36.172815 -6.974844 0.848107 -5.972187 19.862730 -6.319318 1.340199 29.692564 -84.210752 -40.150968 -7.100246 6.531450 5.112541 -7.543826 -52.517241 2.881230 -14.787636 71.356282 -8.575068 1.268089 -5.855977 -6.246269 0.076400 -0.234101 0.015210 18.736320 -50.744954 -2.575074 31.662313 72.030570 28.867131 -18.266758 -15.322429 2.524941 0.115730 0.378829 0.038759
-26.542513 61.117414 26.946031 161.280767 -15.726671 2.261860 2.278747 12.436990 0.224759 0.172562 0.957319 0.031362 0.306079 1.607310 0.053074 2.156619 11.318856 0.564366 3.269447 18.604587 0.059737 3.448712 -6.018665 -0.674274 3.701506 4.498410 -1.690548 -3.573562 -14.483992 -5.239938 -60.940043 -73.694287 73.674250 -1.882458 3.412051 -36.164312 -6.969601 0.820406 -5.971910 19.858673 -6.318051 1.345351 29.531066 -84.217972 -39.991796 -7.084860 6.528944 5.124342 -7.528084 -52.520969 2.861651 -14.786860 71.357846 -8.574837 1.266887 -5.861267 -6.247532 0.076941 -0.232543 0.021614 18.752640 -50.741016 -2.596323 31.659394 72.024908 28.869885 -18.275932 -15.309108 2.529061 0.106696 0.375005 0.028928
